<svg id="interactive" xmlns="http://www.w3.org/2000/svg" width="85.98" height="85.969" viewBox="0 0 85.98 85.969">
  <path id="Path_50180" data-name="Path 50180" d="M54.779,49.7l-3.858-3.858-6.2-6.187,9.992-9.992a3.583,3.583,0,0,0-1.308-5.9L21.276,12.108A7.165,7.165,0,0,0,12.1,21.279L23.791,53.41a3.58,3.58,0,0,0,5.9,1.308l9.981-10.01L45.855,50.9l3.858,3.858a3.582,3.582,0,1,0,5.066-5.066ZM28.6,45.658,18.843,18.825l26.833,9.759Z" transform="translate(30.151 30.166)" fill="#263959"/>
  <path id="Path_50181" data-name="Path 50181" d="M35.825,71.65A35.825,35.825,0,1,1,71.65,35.825a3.583,3.583,0,0,1-7.165,0,28.66,28.66,0,1,0-28.66,28.66,3.583,3.583,0,0,1,0,7.165Z" fill="#263959"/>
  <path id="Path_50182" data-name="Path 50182" d="M18.626,45.622a3.583,3.583,0,0,1-1.372-.272A21.5,21.5,0,1,1,45.362,17.284a3.582,3.582,0,1,1-6.621,2.737A14.33,14.33,0,1,0,20,38.744a3.583,3.583,0,0,1-1.376,6.893Z" transform="translate(10.335 10.337)" fill="#263959"/>
</svg>
