<svg xmlns="http://www.w3.org/2000/svg" width="72" height="55" viewBox="0 0 72 55">
  <g id="Group_37241" data-name="Group 37241" transform="translate(-1275 -286)">
    <text id="Text" transform="translate(1327 308)" fill="#fff" font-size="20" font-family="IBMPlexSansArabic-Bold, IBM Plex Sans Arabic" font-weight="700"><tspan x="-19.24" y="0">نظام</tspan></text>
    <text id="Text-2" data-name="Text" transform="translate(1311 333)" fill="#89c69a" font-size="20" font-family="IBMPlexSansArabic-Bold, IBM Plex Sans Arabic" font-weight="700"><tspan x="-35.28" y="0">التعيينات</tspan></text>
    <path id="briefcase" d="M18.5,3h-.642A4,4,0,0,0,14,0H10A4,4,0,0,0,6.142,3H5.5A5.506,5.506,0,0,0,0,8.5v10A5.506,5.506,0,0,0,5.5,24h13A5.507,5.507,0,0,0,24,18.5V8.5A5.507,5.507,0,0,0,18.5,3ZM5.5,6h13A2.5,2.5,0,0,1,21,8.5V11H3V8.5A2.5,2.5,0,0,1,5.5,6Zm13,15H5.5A2.5,2.5,0,0,1,3,18.5V14h7a2,2,0,0,0,2,2h0a2,2,0,0,0,2-2h7v4.5A2.5,2.5,0,0,1,18.5,21Z" transform="translate(1278 290)" fill="#89c69a"/>
  </g>
</svg>
