<svg xmlns="http://www.w3.org/2000/svg" width="31.584" height="28.952" viewBox="0 0 31.584 28.952">
  <path id="screen" d="M24.346,2H7.238A7.246,7.246,0,0,0,0,9.238v7.9a7.246,7.246,0,0,0,7.238,7.238h6.58V27h-3.29a1.974,1.974,0,0,0,0,3.948H21.056a1.974,1.974,0,0,0,0-3.948h-3.29V24.372h6.58a7.246,7.246,0,0,0,7.238-7.238v-7.9A7.246,7.246,0,0,0,24.346,2Zm3.29,15.134a3.29,3.29,0,0,1-3.29,3.29H7.238a3.29,3.29,0,0,1-3.29-3.29v-7.9a3.29,3.29,0,0,1,3.29-3.29H24.346a3.29,3.29,0,0,1,3.29,3.29Z" transform="translate(0 -2)" fill="#fff"/>
</svg>
